<svg xmlns="http://www.w3.org/2000/svg" viewBox="0 0 120 80">
  <!-- Black Labrador with dummy in mouth -->
  <defs>
    <linearGradient id="labBody" x1="0%" y1="0%" x2="100%" y2="100%">
      <stop offset="0%" style="stop-color:#2a2a2a"/>
      <stop offset="50%" style="stop-color:#1a1a1a"/>
      <stop offset="100%" style="stop-color:#0f0f0f"/>
    </linearGradient>
    <linearGradient id="dummyGrad" x1="0%" y1="0%" x2="0%" y2="100%">
      <stop offset="0%" style="stop-color:#97bc62"/>
      <stop offset="100%" style="stop-color:#7aa04a"/>
    </linearGradient>
  </defs>

  <!-- Body -->
  <ellipse cx="55" cy="55" rx="35" ry="22" fill="url(#labBody)"/>

  <!-- Back leg -->
  <ellipse cx="80" cy="70" rx="8" ry="12" fill="url(#labBody)"/>

  <!-- Front leg -->
  <ellipse cx="30" cy="68" rx="7" ry="14" fill="url(#labBody)"/>

  <!-- Chest -->
  <ellipse cx="28" cy="50" rx="14" ry="16" fill="url(#labBody)"/>

  <!-- Neck -->
  <ellipse cx="22" cy="38" rx="12" ry="14" fill="url(#labBody)"/>

  <!-- Head -->
  <ellipse cx="18" cy="24" rx="14" ry="12" fill="url(#labBody)"/>

  <!-- Snout -->
  <ellipse cx="8" cy="28" rx="8" ry="6" fill="url(#labBody)"/>

  <!-- Left ear -->
  <ellipse cx="28" cy="16" rx="6" ry="10" fill="url(#labBody)" transform="rotate(20 28 16)"/>

  <!-- Right ear (behind head) -->
  <ellipse cx="10" cy="14" rx="5" ry="8" fill="#151515" transform="rotate(-10 10 14)"/>

  <!-- Eye -->
  <circle cx="14" cy="21" r="3" fill="#1a1a1a"/>
  <circle cx="14.5" cy="20.5" r="1.5" fill="#3a2a1a"/>
  <circle cx="14" cy="20" r="0.6" fill="#fff" opacity="0.7"/>

  <!-- Nose -->
  <ellipse cx="2" cy="27" rx="3" ry="2.5" fill="#1a1a1a"/>
  <ellipse cx="2" cy="26.5" rx="2" ry="1.5" fill="#333"/>

  <!-- Dummy in mouth -->
  <rect x="-5" y="30" width="22" height="8" rx="4" fill="url(#dummyGrad)" transform="rotate(-5 6 34)"/>
  <ellipse cx="-4" cy="34" rx="4" ry="4" fill="#7aa04a"/>
  <ellipse cx="16" cy="33" rx="4" ry="4" fill="#7aa04a"/>

  <!-- Tail -->
  <path d="M 88 48 Q 105 40 110 50 Q 115 58 108 55" stroke="url(#labBody)" stroke-width="8" fill="none" stroke-linecap="round"/>
</svg>
